# xmcd
#
# Track frame offsets: 
#        150
#        16598
#        31208
#        46096
#        62056
#        77304
#        90444
#        108212
#        124757
#        144917
#        160315
#        178360
#        188530
#
# Disc length: 2663 seconds
#
# Revision: 1
# Processed by: cddbd v1.5.2PL0 Copyright (c) Steve Scherf et al.
# Submitted via: ExactAudioCopy v1.3
#
DISCID=900a650d
DTITLE=Various Artist - TSP Country and Americana Volume 182
DYEAR=2017
DGENRE=Country
TTITLE0=Tony Clarke - Rain On My Hat
TTITLE1=Meg Devlin Irish - A Little More Time
TTITLE2=Matthew Huff - Tonight
TTITLE3=Dennis Ledbetter - It Might Be The Whiskey
TTITLE4=Ronnie Dye - Stone Cold Dead
TTITLE5=Lynn Easterly - I Listened To My Bad Girl
TTITLE6=Cathy Hutch - Lullaby
TTITLE7=Siggy Robert - Bring Home Your Sweet Love For Christmas
TTITLE8=J D Johnsson - Then You Know It's Christmas Time
TTITLE9=Trevor Aaron Carlesi - Dance Little Girl
TTITLE10=Steve Roberson - As Long As There's Cows
TTITLE11=Claude Reed - Jesus (Savior To All The World)
TTITLE12=Dwayne Ferris - Bucket List
EXTD=
EXTT0=
EXTT1=
EXTT2=
EXTT3=
EXTT4=
EXTT5=
EXTT6=
EXTT7=
EXTT8=
EXTT9=
EXTT10=
EXTT11=
EXTT12=
PLAYORDER=
